<svg width="824" height="824" viewBox="0 0 824 824" fill="none" xmlns="http://www.w3.org/2000/svg">
<rect width="824" height="824" rx="184" fill="url(#paint0_linear_69_2)"/>
<path d="M536 660L536 655L531 655L484 655L479 655L479 660L479 689.5C479 705.24 491.76 718 507.5 718C523.24 718 536 705.24 536 689.5L536 660Z" fill="white" fill-opacity="0.3" stroke="white" stroke-width="10"/>
<path d="M440 660L440 655L435 655L388 655L383 655L383 660L383 689.5C383 705.24 395.76 718 411.5 718C427.24 718 440 705.24 440 689.5L440 660Z" fill="white" fill-opacity="0.3" stroke="white" stroke-width="10"/>
<path d="M344 660L344 655L339 655L292 655L287 655L287 660L287 689.5C287 705.24 299.76 718 315.5 718C331.24 718 344 705.24 344 689.5L344 660Z" fill="white" fill-opacity="0.3" stroke="white" stroke-width="10"/>
<path d="M531 168L536 168L536 163L536 133.5C536 117.76 523.24 105 507.5 105C491.76 105 479 117.76 479 133.5L479 163L479 168L484 168L531 168Z" fill="white" fill-opacity="0.3" stroke="white" stroke-width="10"/>
<path d="M435 168L440 168L440 163L440 133.5C440 117.76 427.24 105 411.5 105C395.76 105 383 117.76 383 133.5L383 163L383 168L388 168L435 168Z" fill="white" fill-opacity="0.3" stroke="white" stroke-width="10"/>
<path d="M339 168L344 168L344 163L344 133.5C344 117.76 331.24 105 315.5 105C299.76 105 287 117.76 287 133.5L287 163L287 168L292 168L339 168Z" fill="white" fill-opacity="0.3" stroke="white" stroke-width="10"/>
<path d="M660 479H655V484V531V536H660H689.5C705.24 536 718 523.24 718 507.5C718 491.76 705.24 479 689.5 479H660Z" fill="white" fill-opacity="0.3" stroke="white" stroke-width="10"/>
<path d="M660 383H655V388V435V440H660H689.5C705.24 440 718 427.24 718 411.5C718 395.76 705.24 383 689.5 383H660Z" fill="white" fill-opacity="0.3" stroke="white" stroke-width="10"/>
<path d="M660 287H655V292V339V344H660H689.5C705.24 344 718 331.24 718 315.5C718 299.76 705.24 287 689.5 287H660Z" fill="white" fill-opacity="0.3" stroke="white" stroke-width="10"/>
<path d="M168 484V479H163H133.5C117.76 479 105 491.76 105 507.5C105 523.24 117.76 536 133.5 536H163H168V531V484Z" fill="white" fill-opacity="0.3" stroke="white" stroke-width="10"/>
<path d="M168 388V383H163H133.5C117.76 383 105 395.76 105 411.5C105 427.24 117.76 440 133.5 440H163H168V435V388Z" fill="white" fill-opacity="0.3" stroke="white" stroke-width="10"/>
<path d="M168 292V287H163H133.5C117.76 287 105 299.76 105 315.5C105 331.24 117.76 344 133.5 344H163H168V339V292Z" fill="white" fill-opacity="0.3" stroke="white" stroke-width="10"/>
<mask id="path-14-outside-1_69_2" maskUnits="userSpaceOnUse" x="272" y="272" width="280" height="280" fill="black">
<rect fill="white" x="272" y="272" width="280" height="280"/>
<path fill-rule="evenodd" clip-rule="evenodd" d="M284.18 292.92C282 297.198 282 302.799 282 314V510C282 521.201 282 526.802 284.18 531.08C286.097 534.843 289.157 537.903 292.92 539.82C297.198 542 302.799 542 314 542H510C521.201 542 526.802 542 531.08 539.82C534.843 537.903 537.903 534.843 539.82 531.08C542 526.802 542 521.201 542 510V314C542 302.799 542 297.198 539.82 292.92C537.903 289.157 534.843 286.097 531.08 284.18C526.802 282 521.201 282 510 282H314C302.799 282 297.198 282 292.92 284.18C289.157 286.097 286.097 289.157 284.18 292.92ZM320.763 323.822C320 325.319 320 327.28 320 331.2V492.8C320 496.72 320 498.681 320.763 500.178C321.434 501.495 322.505 502.566 323.822 503.237C325.319 504 327.28 504 331.2 504H492.8C496.72 504 498.681 504 500.178 503.237C501.495 502.566 502.566 501.495 503.237 500.178C504 498.681 504 496.72 504 492.8V331.2C504 327.28 504 325.319 503.237 323.822C502.566 322.505 501.495 321.434 500.178 320.763C498.681 320 496.72 320 492.8 320H331.2C327.28 320 325.319 320 323.822 320.763C322.505 321.434 321.434 322.505 320.763 323.822Z"/>
</mask>
<path fill-rule="evenodd" clip-rule="evenodd" d="M284.18 292.92C282 297.198 282 302.799 282 314V510C282 521.201 282 526.802 284.18 531.08C286.097 534.843 289.157 537.903 292.92 539.82C297.198 542 302.799 542 314 542H510C521.201 542 526.802 542 531.08 539.82C534.843 537.903 537.903 534.843 539.82 531.08C542 526.802 542 521.201 542 510V314C542 302.799 542 297.198 539.82 292.92C537.903 289.157 534.843 286.097 531.08 284.18C526.802 282 521.201 282 510 282H314C302.799 282 297.198 282 292.92 284.18C289.157 286.097 286.097 289.157 284.18 292.92ZM320.763 323.822C320 325.319 320 327.28 320 331.2V492.8C320 496.72 320 498.681 320.763 500.178C321.434 501.495 322.505 502.566 323.822 503.237C325.319 504 327.28 504 331.2 504H492.8C496.72 504 498.681 504 500.178 503.237C501.495 502.566 502.566 501.495 503.237 500.178C504 498.681 504 496.72 504 492.8V331.2C504 327.28 504 325.319 503.237 323.822C502.566 322.505 501.495 321.434 500.178 320.763C498.681 320 496.72 320 492.8 320H331.2C327.28 320 325.319 320 323.822 320.763C322.505 321.434 321.434 322.505 320.763 323.822Z" fill="white" fill-opacity="0.3"/>
<path d="M284.18 292.92L293.09 297.46L284.18 292.92ZM284.18 531.08L293.09 526.54L293.09 526.54L284.18 531.08ZM292.92 539.82L297.46 530.91H297.46L292.92 539.82ZM531.08 539.82L526.54 530.91H526.54L531.08 539.82ZM539.82 531.08L530.91 526.54V526.54L539.82 531.08ZM539.82 292.92L530.91 297.46V297.46L539.82 292.92ZM531.08 284.18L526.54 293.09L526.54 293.09L531.08 284.18ZM292.92 284.18L297.46 293.09L292.92 284.18ZM320.763 323.822L329.673 328.362L329.673 328.362L320.763 323.822ZM320.763 500.178L329.673 495.638L329.673 495.638L320.763 500.178ZM323.822 503.237L328.362 494.327H328.362L323.822 503.237ZM500.178 503.237L495.638 494.327L495.638 494.327L500.178 503.237ZM503.237 500.178L494.327 495.638L494.327 495.638L503.237 500.178ZM503.237 323.822L494.327 328.362V328.362L503.237 323.822ZM500.178 320.763L495.638 329.673L495.638 329.673L500.178 320.763ZM323.822 320.763L328.362 329.673L328.362 329.673L323.822 320.763ZM292 314C292 308.234 292.008 304.512 292.239 301.678C292.461 298.962 292.838 297.955 293.09 297.46L275.27 288.38C273.342 292.164 272.629 296.096 272.306 300.05C271.992 303.886 272 308.564 272 314H292ZM292 510V314H272V510H292ZM293.09 526.54C292.838 526.045 292.461 525.038 292.239 522.322C292.008 519.488 292 515.766 292 510H272C272 515.436 271.992 520.114 272.306 523.95C272.629 527.904 273.342 531.836 275.27 535.62L293.09 526.54ZM297.46 530.91C295.578 529.951 294.049 528.422 293.09 526.54L275.27 535.62C278.146 541.265 282.735 545.854 288.38 548.73L297.46 530.91ZM314 532C308.234 532 304.512 531.992 301.678 531.761C298.962 531.539 297.955 531.162 297.46 530.91L288.38 548.73C292.164 550.658 296.096 551.371 300.05 551.694C303.886 552.008 308.564 552 314 552V532ZM510 532H314V552H510V532ZM526.54 530.91C526.045 531.162 525.038 531.539 522.322 531.761C519.488 531.992 515.766 532 510 532V552C515.436 552 520.114 552.008 523.95 551.694C527.904 551.371 531.836 550.658 535.62 548.73L526.54 530.91ZM530.91 526.54C529.951 528.422 528.422 529.951 526.54 530.91L535.62 548.73C541.265 545.854 545.854 541.265 548.73 535.62L530.91 526.54ZM532 510C532 515.766 531.992 519.488 531.761 522.322C531.539 525.038 531.162 526.045 530.91 526.54L548.73 535.62C550.658 531.836 551.371 527.904 551.694 523.95C552.008 520.114 552 515.436 552 510H532ZM532 314V510H552V314H532ZM530.91 297.46C531.162 297.955 531.539 298.962 531.761 301.678C531.992 304.512 532 308.234 532 314H552C552 308.564 552.008 303.886 551.694 300.05C551.371 296.096 550.658 292.164 548.73 288.38L530.91 297.46ZM526.54 293.09C528.422 294.049 529.951 295.578 530.91 297.46L548.73 288.38C545.854 282.735 541.265 278.146 535.62 275.27L526.54 293.09ZM510 292C515.766 292 519.488 292.008 522.322 292.239C525.038 292.461 526.045 292.838 526.54 293.09L535.62 275.27C531.836 273.342 527.904 272.629 523.95 272.306C520.114 271.992 515.436 272 510 272V292ZM314 292H510V272H314V292ZM297.46 293.09C297.955 292.838 298.962 292.461 301.678 292.239C304.512 292.008 308.234 292 314 292V272C308.564 272 303.886 271.992 300.05 272.306C296.096 272.629 292.164 273.342 288.38 275.27L297.46 293.09ZM293.09 297.46C294.049 295.578 295.578 294.049 297.46 293.09L288.38 275.27C282.735 278.146 278.146 282.735 275.27 288.38L293.09 297.46ZM330 331.2C330 330.197 330 329.425 330.011 328.761C330.021 328.097 330.04 327.685 330.062 327.417C330.107 326.868 330.13 327.466 329.673 328.362L311.853 319.282C310.633 321.676 310.274 324.002 310.129 325.788C309.992 327.457 310 329.405 310 331.2H330ZM330 492.8V331.2H310V492.8H330ZM329.673 495.638C330.13 496.534 330.107 497.132 330.062 496.583C330.04 496.315 330.021 495.903 330.011 495.239C330 494.575 330 493.803 330 492.8H310C310 494.595 309.992 496.543 310.129 498.212C310.274 499.998 310.633 502.324 311.853 504.718L329.673 495.638ZM328.362 494.327C328.926 494.615 329.385 495.074 329.673 495.638L311.853 504.718C313.483 507.917 316.083 510.517 319.282 512.147L328.362 494.327ZM331.2 494C330.197 494 329.425 494 328.761 493.989C328.097 493.979 327.685 493.96 327.417 493.938C326.868 493.893 327.466 493.87 328.362 494.327L319.282 512.147C321.676 513.367 324.002 513.726 325.788 513.871C327.457 514.008 329.405 514 331.2 514V494ZM492.8 494H331.2V514H492.8V494ZM495.638 494.327C496.534 493.87 497.132 493.893 496.583 493.938C496.315 493.96 495.903 493.979 495.239 493.989C494.575 494 493.803 494 492.8 494V514C494.595 514 496.543 514.008 498.212 513.871C499.998 513.726 502.324 513.367 504.718 512.147L495.638 494.327ZM494.327 495.638C494.615 495.074 495.074 494.615 495.638 494.327L504.718 512.147C507.917 510.517 510.517 507.917 512.147 504.718L494.327 495.638ZM494 492.8C494 493.803 494 494.575 493.989 495.239C493.979 495.903 493.96 496.315 493.938 496.583C493.893 497.132 493.87 496.534 494.327 495.638L512.147 504.718C513.367 502.324 513.726 499.998 513.871 498.212C514.008 496.543 514 494.595 514 492.8H494ZM494 331.2V492.8H514V331.2H494ZM494.327 328.362C493.87 327.466 493.893 326.868 493.938 327.417C493.96 327.685 493.979 328.097 493.989 328.761C494 329.425 494 330.197 494 331.2H514C514 329.405 514.008 327.457 513.871 325.788C513.726 324.002 513.367 321.676 512.147 319.282L494.327 328.362ZM495.638 329.673C495.074 329.385 494.615 328.926 494.327 328.362L512.147 319.282C510.517 316.083 507.917 313.483 504.718 311.853L495.638 329.673ZM492.8 330C493.803 330 494.575 330 495.239 330.011C495.903 330.021 496.315 330.04 496.583 330.062C497.132 330.107 496.534 330.13 495.638 329.673L504.718 311.853C502.324 310.633 499.998 310.274 498.212 310.129C496.543 309.992 494.595 310 492.8 310V330ZM331.2 330H492.8V310H331.2V330ZM328.362 329.673C327.466 330.13 326.868 330.107 327.417 330.062C327.685 330.04 328.097 330.021 328.761 330.011C329.425 330 330.197 330 331.2 330V310C329.405 310 327.457 309.992 325.788 310.129C324.002 310.274 321.676 310.633 319.282 311.853L328.362 329.673ZM329.673 328.362C329.385 328.926 328.926 329.385 328.362 329.673L319.282 311.853C316.083 313.483 313.483 316.083 311.853 319.282L329.673 328.362Z" fill="white" mask="url(#path-14-outside-1_69_2)"/>
<mask id="path-16-outside-2_69_2" maskUnits="userSpaceOnUse" x="163" y="163" width="497" height="497" fill="black">
<rect fill="white" x="163" y="163" width="497" height="497"/>
<path fill-rule="evenodd" clip-rule="evenodd" d="M193 173C181.954 173 173 181.954 173 193V630C173 641.046 181.954 650 193 650H630C641.046 650 650 641.046 650 630V193C650 181.954 641.046 173 630 173H193ZM220.763 223.822C220 225.319 220 227.28 220 231.2V591.8C220 595.72 220 597.681 220.763 599.178C221.434 600.495 222.505 601.566 223.822 602.237C225.319 603 227.28 603 231.2 603H591.8C595.72 603 597.681 603 599.178 602.237C600.495 601.566 601.566 600.495 602.237 599.178C603 597.681 603 595.72 603 591.8V231.2C603 227.28 603 225.319 602.237 223.822C601.566 222.505 600.495 221.434 599.178 220.763C597.681 220 595.72 220 591.8 220H231.2C227.28 220 225.319 220 223.822 220.763C222.505 221.434 221.434 222.505 220.763 223.822Z"/>
</mask>
<path fill-rule="evenodd" clip-rule="evenodd" d="M193 173C181.954 173 173 181.954 173 193V630C173 641.046 181.954 650 193 650H630C641.046 650 650 641.046 650 630V193C650 181.954 641.046 173 630 173H193ZM220.763 223.822C220 225.319 220 227.28 220 231.2V591.8C220 595.72 220 597.681 220.763 599.178C221.434 600.495 222.505 601.566 223.822 602.237C225.319 603 227.28 603 231.2 603H591.8C595.72 603 597.681 603 599.178 602.237C600.495 601.566 601.566 600.495 602.237 599.178C603 597.681 603 595.72 603 591.8V231.2C603 227.28 603 225.319 602.237 223.822C601.566 222.505 600.495 221.434 599.178 220.763C597.681 220 595.72 220 591.8 220H231.2C227.28 220 225.319 220 223.822 220.763C222.505 221.434 221.434 222.505 220.763 223.822Z" fill="white" fill-opacity="0.3"/>
<path d="M220.763 223.822L229.673 228.362L229.673 228.362L220.763 223.822ZM220.763 599.178L211.853 603.718L211.853 603.718L220.763 599.178ZM223.822 602.237L219.282 611.147L219.282 611.147L223.822 602.237ZM599.178 602.237L603.718 611.147L603.718 611.147L599.178 602.237ZM602.237 599.178L611.147 603.718L611.147 603.718L602.237 599.178ZM602.237 223.822L611.147 219.282L611.147 219.282L602.237 223.822ZM599.178 220.763L603.718 211.853L603.718 211.853L599.178 220.763ZM223.822 220.763L228.362 229.673L228.362 229.673L223.822 220.763ZM183 193C183 187.477 187.477 183 193 183V163C176.431 163 163 176.431 163 193H183ZM183 630V193H163V630H183ZM193 640C187.477 640 183 635.523 183 630H163C163 646.569 176.431 660 193 660V640ZM630 640H193V660H630V640ZM640 630C640 635.523 635.523 640 630 640V660C646.569 660 660 646.569 660 630H640ZM640 193V630H660V193H640ZM630 183C635.523 183 640 187.477 640 193H660C660 176.431 646.569 163 630 163V183ZM193 183H630V163H193V183ZM230 231.2C230 230.197 230 229.425 230.011 228.761C230.021 228.097 230.04 227.685 230.062 227.417C230.107 226.868 230.13 227.466 229.673 228.362L211.853 219.282C210.633 221.676 210.274 224.002 210.129 225.788C209.992 227.457 210 229.405 210 231.2H230ZM230 591.8V231.2H210V591.8H230ZM229.673 594.638C230.13 595.534 230.107 596.132 230.062 595.583C230.04 595.315 230.021 594.903 230.011 594.239C230 593.575 230 592.803 230 591.8H210C210 593.595 209.992 595.543 210.129 597.212C210.274 598.998 210.633 601.324 211.853 603.718L229.673 594.638ZM228.362 593.327C228.926 593.615 229.385 594.073 229.673 594.638L211.853 603.718C213.483 606.917 216.083 609.517 219.282 611.147L228.362 593.327ZM231.2 593C230.197 593 229.425 593 228.761 592.989C228.097 592.979 227.685 592.96 227.417 592.938C226.868 592.893 227.466 592.87 228.362 593.327L219.282 611.147C221.676 612.367 224.002 612.726 225.788 612.871C227.457 613.008 229.405 613 231.2 613V593ZM591.8 593H231.2V613H591.8V593ZM594.638 593.327C595.534 592.87 596.132 592.893 595.583 592.938C595.315 592.96 594.903 592.979 594.239 592.989C593.575 593 592.803 593 591.8 593V613C593.595 613 595.543 613.008 597.212 612.871C598.998 612.726 601.324 612.367 603.718 611.147L594.638 593.327ZM593.327 594.638C593.615 594.073 594.073 593.615 594.638 593.327L603.718 611.147C606.917 609.517 609.517 606.917 611.147 603.718L593.327 594.638ZM593 591.8C593 592.803 593 593.575 592.989 594.239C592.979 594.903 592.96 595.315 592.938 595.583C592.893 596.132 592.87 595.534 593.327 594.638L611.147 603.718C612.367 601.324 612.726 598.998 612.871 597.212C613.008 595.543 613 593.595 613 591.8H593ZM593 231.2V591.8H613V231.2H593ZM593.327 228.362C592.87 227.466 592.893 226.868 592.938 227.417C592.96 227.685 592.979 228.097 592.989 228.761C593 229.425 593 230.197 593 231.2H613C613 229.405 613.008 227.457 612.871 225.788C612.726 224.002 612.367 221.676 611.147 219.282L593.327 228.362ZM594.638 229.673C594.073 229.385 593.615 228.926 593.327 228.362L611.147 219.282C609.517 216.083 606.917 213.483 603.718 211.853L594.638 229.673ZM591.8 230C592.803 230 593.575 230 594.239 230.011C594.903 230.021 595.315 230.04 595.583 230.062C596.132 230.107 595.534 230.13 594.638 229.673L603.718 211.853C601.324 210.633 598.998 210.274 597.212 210.129C595.543 209.992 593.595 210 591.8 210V230ZM231.2 230H591.8V210H231.2V230ZM228.362 229.673C227.466 230.13 226.868 230.107 227.417 230.062C227.685 230.04 228.097 230.021 228.761 230.011C229.425 230 230.197 230 231.2 230V210C229.405 210 227.457 209.992 225.788 210.129C224.002 210.274 221.676 210.633 219.282 211.853L228.362 229.673ZM229.673 228.362C229.385 228.926 228.926 229.385 228.362 229.673L219.282 211.853C216.083 213.483 213.483 216.083 211.853 219.282L229.673 228.362Z" fill="white" mask="url(#path-16-outside-2_69_2)"/>
<rect x="49" y="49" width="726" height="726" rx="135" stroke="white" stroke-width="12"/>
<mask id="mask0_69_2" style="mask-type:alpha" maskUnits="userSpaceOnUse" x="-2" y="-2" width="828" height="827">
<line y1="536.5" x2="824" y2="536.5" stroke="white" stroke-opacity="0.2" stroke-width="3"/>
<line y1="286.5" x2="824" y2="286.5" stroke="white" stroke-opacity="0.2" stroke-width="3"/>
<line x1="536.5" y1="824" x2="536.5" y2="8.49426e-05" stroke="white" stroke-opacity="0.2" stroke-width="3"/>
<line x1="286.5" y1="824" x2="286.5" y2="8.49427e-05" stroke="white" stroke-opacity="0.2" stroke-width="3"/>
<line x1="0.0606602" y1="-0.0606602" x2="824.061" y2="823.939" stroke="white" stroke-opacity="0.2" stroke-width="3"/>
<line x1="-0.0606602" y1="823.939" x2="823.939" y2="-0.060655" stroke="white" stroke-opacity="0.2" stroke-width="3"/>
<line y1="169.5" x2="824" y2="169.5" stroke="white" stroke-opacity="0.2" stroke-width="3"/>
<line y1="653.5" x2="824" y2="653.5" stroke="white" stroke-opacity="0.2" stroke-width="3"/>
<line x1="653.5" y1="-6.55671e-08" x2="653.5" y2="824" stroke="white" stroke-opacity="0.2" stroke-width="3"/>
<line x1="170.5" y1="-6.55671e-08" x2="170.5" y2="824.001" stroke="white" stroke-opacity="0.2" stroke-width="3"/>
</mask>
<g mask="url(#mask0_69_2)">
<rect x="43" y="43" width="738" height="738" rx="141" fill="white"/>
</g>
<defs>
<linearGradient id="paint0_linear_69_2" x1="412" y1="0" x2="412" y2="824" gradientUnits="userSpaceOnUse">
<stop stop-color="#19B8F0"/>
<stop offset="1" stop-color="#1762E1"/>
</linearGradient>
</defs>
</svg>
